<svg xmlns="http://www.w3.org/2000/svg" xmlns:xlink="http://www.w3.org/1999/xlink" viewBox="9 6 24 24.11">
  <defs>
    <filter id="phone_in_talk_FILL1_wght500_GRAD0_opsz48" x="0" y="0" width="42" height="42.104" filterUnits="userSpaceOnUse">
      <feOffset dy="3" input="SourceAlpha"/>
      <feGaussianBlur stdDeviation="3" result="blur"/>
      <feFlood flood-opacity="0.161"/>
      <feComposite operator="in" in2="blur"/>
      <feComposite in="SourceGraphic"/>
    </filter>
  </defs>
  <g transform="matrix(1, 0, 0, 1, 0, 0)" filter="url(#phone_in_talk_FILL1_wght500_GRAD0_opsz48)">
    <path id="phone_in_talk_FILL1_wght500_GRAD0_opsz48-2" data-name="phone_in_talk_FILL1_wght500_GRAD0_opsz48" d="M136.139,218.243a.951.951,0,0,1-.667-.27,1.193,1.193,0,0,1-.364-.687,10.1,10.1,0,0,0-8.612-8.62,1.145,1.145,0,0,1-.687-.36,1.065,1.065,0,0,1,.037-1.457.836.836,0,0,1,.749-.237,12.009,12.009,0,0,1,10.576,10.576.831.831,0,0,1-.241.749A1.069,1.069,0,0,1,136.139,218.243Zm-5.736,0a1.019,1.019,0,0,1-.63-.225,1.157,1.157,0,0,1-.409-.6,4.429,4.429,0,0,0-3-3,1.3,1.3,0,0,1-.6-.384.934.934,0,0,1-.225-.63,1.048,1.048,0,0,1,.344-.823.87.87,0,0,1,.826-.193,6.348,6.348,0,0,1,2.992,1.69,6.554,6.554,0,0,1,1.727,3,.884.884,0,0,1-.2.822A1.043,1.043,0,0,1,130.4,218.243Zm5.229,12.461a17.88,17.88,0,0,1-8.024-1.984,27.435,27.435,0,0,1-12.324-12.328,17.909,17.909,0,0,1-1.98-8.024,1.637,1.637,0,0,1,1.664-1.664h4.576a1.508,1.508,0,0,1,1.015.363,1.725,1.725,0,0,1,.553,1.005l.87,4.007a2.565,2.565,0,0,1-.016,1,1.494,1.494,0,0,1-.431.749l-3.319,3.266a26.667,26.667,0,0,0,3.983,5.114,22.1,22.1,0,0,0,4.946,3.685l3.163-3.238a2.13,2.13,0,0,1,.876-.579,1.8,1.8,0,0,1,1.006-.041l3.738.837a1.749,1.749,0,0,1,1,.594,1.664,1.664,0,0,1,.379,1.1v4.467a1.65,1.65,0,0,1-1.672,1.672Z" transform="translate(-104.3 -200.6)" fill="#fff"/>
  </g>
</svg>