<svg xmlns="http://www.w3.org/2000/svg" xmlns:xlink="http://www.w3.org/1999/xlink" viewBox="9 6.01 28 28.13">
  <defs>
    <filter id="Digital_Glyph_White" x="0" y="0" width="46" height="46.135" filterUnits="userSpaceOnUse">
      <feOffset dy="3" input="SourceAlpha"/>
      <feGaussianBlur stdDeviation="3" result="blur"/>
      <feFlood flood-opacity="0.161"/>
      <feComposite operator="in" in2="blur"/>
      <feComposite in="SourceGraphic"/>
    </filter>
  </defs>
  <g transform="matrix(1, 0, 0, 1, 0, 0)" filter="url(#Digital_Glyph_White)">
    <path id="Digital_Glyph_White-2" data-name="Digital_Glyph_White" d="M23.92,4.088A13.945,13.945,0,0,0,1.978,20.91L0,28.135,7.391,26.2a13.923,13.923,0,0,0,6.662,1.7h.006a13.947,13.947,0,0,0,9.861-23.8Zm-9.861,21.45h0a11.573,11.573,0,0,1-5.9-1.615l-.423-.251-4.386,1.15,1.171-4.276-.275-.439a11.588,11.588,0,1,1,9.817,5.43Zm6.356-8.678c-.348-.174-2.061-1.017-2.38-1.133s-.551-.174-.783.174-.9,1.134-1.1,1.366-.406.261-.755.087a9.524,9.524,0,0,1-2.8-1.729,10.5,10.5,0,0,1-1.938-2.413c-.2-.349-.021-.537.152-.711.156-.156.348-.407.523-.61a2.373,2.373,0,0,0,.348-.581.642.642,0,0,0-.029-.61c-.087-.174-.783-1.889-1.074-2.586-.283-.679-.57-.587-.783-.6S9.355,7.5,9.123,7.5a1.279,1.279,0,0,0-.929.436,3.907,3.907,0,0,0-1.219,2.906,6.778,6.778,0,0,0,1.423,3.6,15.536,15.536,0,0,0,5.951,5.26,19.983,19.983,0,0,0,1.986.734,4.773,4.773,0,0,0,2.194.138,3.588,3.588,0,0,0,2.351-1.657,2.916,2.916,0,0,0,.2-1.657c-.087-.145-.32-.233-.668-.407Z" transform="translate(9 6)" fill="#fff" fill-rule="evenodd"/>
  </g>
</svg>